<?xml version="1.0" encoding="iso-8859-1"?>
<!-- Uploaded to: SVG Repo, www.svgrepo.com, Generator: SVG Repo Mixer Tools -->
<svg height="800px" width="800px" version="1.1" id="Layer_1" xmlns="http://www.w3.org/2000/svg" xmlns:xlink="http://www.w3.org/1999/xlink" 
	 viewBox="0 0 512.001 512.001" xml:space="preserve">
<path style="fill:#707287;" d="M201.217,484.609c-42.047-9.942-80.173-31.253-111.373-62.452
	C45.462,377.774,21.02,318.766,21.02,255.999c0-62.765,24.443-121.775,68.824-166.156c31.201-31.199,69.327-52.511,111.373-62.452
	V484.609z"/>
<path style="opacity:0.1;enable-background:new    ;" d="M173.972,447.007c-23.979-10.322-46-25.251-64.864-44.115
	c-39.236-39.237-60.845-91.404-60.845-146.892s21.608-107.656,60.845-146.892c18.865-18.864,40.885-33.794,64.864-44.116V447.007z"
	/>
<path style="fill:#707287;" d="M310.783,484.609c42.047-9.942,80.173-31.253,111.373-62.452
	c44.383-44.383,68.824-103.391,68.824-166.158c0-62.765-24.443-121.775-68.824-166.156c-31.201-31.199-69.327-52.511-111.373-62.452
	V484.609z"/>
<path style="opacity:0.1;enable-background:new    ;" d="M338.028,447.007c23.979-10.322,46-25.251,64.864-44.115
	c39.236-39.237,60.845-91.404,60.845-146.892s-21.608-107.656-60.845-146.892c-18.865-18.864-40.885-33.794-64.864-44.116V447.007z"
	/>
<path style="fill:#707287;" d="M359.945,260.824L288.987,24.311l0,0l0,0c-10.779-1.521-21.788-2.326-32.987-2.326
	c-11.199,0-22.208,0.804-32.987,2.326l-70.958,236.513l70.958,226.865c10.779,1.521,21.788,2.326,32.987,2.326
	c11.199,0,22.208-0.804,32.987-2.326l0,0l0,0L359.945,260.824z"/>
<g>
	<circle style="fill:#9BDC6E;" cx="256.002" cy="70.677" r="12.745"/>
	<circle style="fill:#9BDC6E;" cx="256.002" cy="123.625" r="12.745"/>
</g>
<circle style="fill:#FF6465;" cx="256.002" cy="421.976" r="12.745"/>
<g>
	<path style="fill:#C7CFE2;" d="M256.001,163.289c-7.039,0-12.745,5.706-12.745,12.745v40.056c0,7.039,5.706,12.745,12.745,12.745
		s12.745-5.706,12.745-12.745v-40.056C268.746,168.995,263.039,163.289,256.001,163.289z"/>
	<path style="fill:#C7CFE2;" d="M74.432,74.432C63.107,85.757,52.986,97.964,44.1,110.881h37.302
		c11.098,0,20.095,8.996,20.095,20.095l0,0c0,11.098-8.996,20.095-20.095,20.095h-59.9C9.585,177.674,2.28,206.285,0,235.906h81.403
		c11.098,0,20.095,8.996,20.095,20.095l0,0c0,11.098-8.996,20.095-20.095,20.095H0.003c2.556,33.237,11.451,65.198,26.077,94.483
		h55.323c11.098,0,20.095,8.996,20.095,20.095l0,0c0,11.098-8.996,20.095-20.095,20.095H51.062
		c7.112,9.378,14.905,18.336,23.37,26.802c40.634,40.635,92.492,65.961,148.58,73.11V1.321
		C166.925,8.47,115.066,33.798,74.432,74.432z"/>
</g>
<g>
	<path style="fill:#E1EAFF;" d="M107.126,74.432c32.605-32.606,72.441-55.345,115.887-66.755V1.321
		C166.925,8.47,115.066,33.798,74.432,74.432C63.107,85.757,52.986,97.964,44.1,110.881h32.694
		C85.68,97.964,95.801,85.757,107.126,74.432z"/>
	<path style="fill:#E1EAFF;" d="M81.403,410.767H51.062c7.112,9.378,14.905,18.336,23.37,26.802
		c40.634,40.635,92.492,65.961,148.58,73.11v-6.356c-43.447-11.411-83.281-34.15-115.887-66.755
		c-8.467-8.467-16.26-17.425-23.37-26.802H81.403z"/>
	<path style="fill:#E1EAFF;" d="M54.196,151.07H21.503C9.585,177.674,2.28,206.285,0,235.906h32.694
		C34.973,206.285,42.278,177.674,54.196,151.07z"/>
	<path style="fill:#E1EAFF;" d="M32.697,276.095H0.003c2.556,33.237,11.451,65.198,26.077,94.483h32.694
		C44.148,341.292,35.253,309.332,32.697,276.095z"/>
</g>
<path style="fill:#C7CFE2;" d="M437.568,74.432c11.325,11.325,21.446,23.532,30.332,36.449h-37.302
	c-11.098,0-20.095,8.996-20.095,20.095l0,0c0,11.098,8.996,20.095,20.095,20.095h59.901c11.917,26.605,19.222,55.214,21.503,84.835
	h-81.403c-11.098,0-20.095,8.996-20.095,20.095l0,0c0,11.098,8.996,20.095,20.095,20.095h81.399
	c-2.556,33.237-11.451,65.198-26.078,94.483h-55.323c-11.098,0-20.095,8.996-20.095,20.095l0,0c0,11.098,8.996,20.095,20.095,20.095
	h30.342c-7.112,9.378-14.905,18.336-23.37,26.802c-40.634,40.635-92.492,65.961-148.58,73.11V1.321
	C345.076,8.47,396.934,33.798,437.568,74.432z"/>
<g>
	<path style="fill:#AFB6C7;" d="M404.874,74.432c-32.605-32.606-72.441-55.345-115.887-66.755V1.321
		c56.089,7.149,107.947,32.477,148.58,73.11c11.325,11.325,21.446,23.532,30.332,36.449h-32.694
		C426.32,97.964,416.2,85.757,404.874,74.432z"/>
	<path style="fill:#AFB6C7;" d="M430.597,410.767h30.342c-7.112,9.378-14.905,18.336-23.37,26.802
		c-40.634,40.635-92.492,65.961-148.58,73.11v-6.356c43.447-11.411,83.281-34.15,115.887-66.755
		c8.467-8.467,16.26-17.425,23.37-26.802H430.597z"/>
	<path style="fill:#AFB6C7;" d="M457.805,151.07h32.694c11.917,26.605,19.222,55.214,21.503,84.835h-32.694
		C477.027,206.285,469.722,177.674,457.805,151.07z"/>
	<path style="fill:#AFB6C7;" d="M479.303,276.095h32.694c-2.556,33.237-11.451,65.198-26.077,94.483h-32.694
		C467.853,341.292,476.748,309.332,479.303,276.095z"/>
</g>
</svg>
